<svg t="1688466410492" class="icon" viewBox="0 0 1024 1024" version="1.1" xmlns="http://www.w3.org/2000/svg" p-id="8525" width="200" height="200"><path d="M856.8 236c16.7-37.2 17.7-75.2 1-107.4-18.7-36.1-57.7-59.4-107-63.8-43.9-3.9-93.1 6.9-138.6 30.5-43.3 22.5-77.7 53.5-99.6 87.6-21.9-34-56.3-65.1-99.6-87.6-45.5-23.6-94.8-34.4-138.6-30.5-49.3 4.4-88.3 27.6-107 63.8-16.7 32.2-15.7 70.1 1 107.3C110.3 239.4 64 287.6 64 346.6v70.5c0 38.9 20.1 73.1 50.5 92.9v355.3c0 52.1 42.4 94.4 94.4 94.4h615.4c52.1 0 94.4-42.4 94.4-94.4v-362c25.1-20.4 41.2-51.4 41.2-86.2v-70.5C960 288 914.3 240 856.8 236zM886 346.6v70.5c0 20.4-16.6 37-37 37H549V309.6h300c20.4 0 37 16.6 37 37zM646.3 161c32.6-16.9 68.3-25.1 97.9-22.5 23.6 2.1 41 10.9 47.9 24.1 9.3 18 0.4 46.2-22.2 72.9H567.7c12.1-25.2 38.4-53.6 78.6-74.5zM233 162.7c6.9-13.2 24.3-22 47.9-24.1 29.6-2.6 65.3 5.6 97.9 22.5 40.2 20.8 66.5 49.3 78.6 74.6H255.2c-22.6-26.8-31.5-55-22.2-73z m-95 183.9c0-20.4 16.6-37 37-37h300v144.5H175c-20.4 0-37-16.6-37-37v-70.5z m50.5 518.7V528.1H475v357.7H208.9c-11.2-0.1-20.4-9.2-20.4-20.5z m635.8 20.4H549V528.1h295.8v337.2c0 11.3-9.2 20.4-20.5 20.4z" p-id="8526"></path></svg>