<svg t="1687422768425" class="icon" viewBox="0 0 1024 1024" version="1.1" xmlns="http://www.w3.org/2000/svg" p-id="1361" width="200" height="200"><path d="M898 799.7H217.2c-16.5 0-30 13.5-30 30s13.5 30 30 30H898c16.5 0 30-13.5 30-30s-13.5-30-30-30zM199.7 793.6l199.6-75.9c0.3-0.1 0.5-0.2 0.8-0.3 5.1-1.3 9.8-4.1 13.5-8.4l345.9-390.2c10.1-11.4 9-28.8-2.3-38.9L607.5 147.4c-5.5-4.8-12.6-7.3-19.9-6.9-7.3 0.4-14.1 3.8-19 9.2L222.7 539.8c-3.6 4.1-5.9 9.1-6.7 14.4-0.1 0.3-0.2 0.7-0.3 1l-50 208.6c-2.2 9.2 0.9 18.9 8 25.1 4.7 4.2 10.8 6.4 16.9 6.4 3.1 0 6.2-0.5 9.1-1.7z m27-64.8l28.8-120.2 86.3 76.5-115.1 43.7z m364.9-521.9L700 303 390.7 651.9l-108.4-96.1 309.3-348.9z" fill="" p-id="1362"></path></svg>