<svg t="1687422745669" class="icon" viewBox="0 0 1024 1024" version="1.1" xmlns="http://www.w3.org/2000/svg" p-id="1216" width="200" height="200"><path d="M512 73.142857C270.628571 73.142857 73.142857 270.628571 73.142857 512s197.485714 438.857143 438.857143 438.857143 438.857143-197.485714 438.857143-438.857143-197.485714-438.857143-438.857143-438.857143z m0 804.571429c-204.8 0-365.714286-160.914286-365.714286-365.714286s160.914286-365.714286 365.714286-365.714286 365.714286 160.914286 365.714286 365.714286-160.914286 365.714286-365.714286 365.714286z" fill="" p-id="1217"></path><path d="M621.714286 512H512V256c0-21.942857-14.628571-36.571429-36.571429-36.571429s-36.571429 14.628571-36.571428 36.571429v292.571429c0 21.942857 14.628571 36.571429 36.571428 36.571428h146.285715c21.942857 0 36.571429-14.628571 36.571428-36.571428S643.657143 512 621.714286 512z" fill="" p-id="1218"></path></svg>