<svg t="1688466795995" class="icon" viewBox="0 0 1133 1024" version="1.1" xmlns="http://www.w3.org/2000/svg" p-id="11229" width="200" height="200"><path d="M731.428571 877.714286h-389.049055v-73.151031H658.277541V127.22558a54.074549 54.074549 0 0 0-53.943777-54.02551H127.143847a54.074549 54.074549 0 0 0-53.943777 54.02551v623.344859a54.041856 54.041856 0 0 0 53.943777 53.943776h37.041393v73.151031H127.143847A127.290966 127.290966 0 0 1 0 750.521399V127.22558A127.290966 127.290966 0 0 1 127.143847 0.04904H604.333764a127.290966 127.290966 0 0 1 127.094807 127.17654z" p-id="11230"></path><path d="M256.004087 1024a146.285714 146.285714 0 1 1 146.285714-146.285714 146.432834 146.432834 0 0 1-146.285714 146.285714z m0-219.436745a73.15103 73.15103 0 1 0 73.134683 73.151031 73.24911 73.24911 0 0 0-73.134683-73.151031zM914.281628 1024a146.285714 146.285714 0 1 1 146.285714-146.285714 146.465527 146.465527 0 0 1-146.285714 146.285714z m0-219.436745a73.15103 73.15103 0 1 0 73.134683 73.151031 73.216417 73.216417 0 0 0-73.134683-73.151031z" p-id="11231"></path><path d="M1019.357566 877.714286H996.65214v-73.151031h22.787159a41.275162 41.275162 0 0 0 41.209776-41.209776V456.609549l-90.854397-90.903437H731.428571v438.857143h100.122919v73.151031h-173.273949v-585.208244h341.643919l133.780566 133.862299v336.985138a114.426193 114.426193 0 0 1-114.34446 114.360807z" p-id="11232"></path></svg>