<svg t="1745826674835" class="icon" viewBox="0 0 1025 1024" version="1.1" xmlns="http://www.w3.org/2000/svg" p-id="17034" width="200" height="200"><path d="M987.13 1024H38.4A38.67 38.67 0 0 1 0.765 986.365V37.635A38.655 38.655 0 0 1 38.4 0h948.73a38.655 38.655 0 0 1 37.635 37.635v948.73A38.67 38.67 0 0 1 987.13 1024zM77.565 947.185h870.43V76.8H77.565z m0 0" p-id="17035"></path><path d="M987.13 358.393H38.4a38.4 38.4 0 0 1 0-76.8h948.73a38.4 38.4 0 1 1 0 76.8zM831.746 851.711H542.457a38.4 38.4 0 0 1 0-76.8h289.289a38.4 38.4 0 0 1 0 76.8z m-585.477 0a38.4 38.4 0 0 1-27.135-65.535l124.364-124.424-122.894-122.61a38.7 38.7 0 0 1 0-54.284 38.16 38.16 0 0 1 54.285 0l149.999 149.759a38.865 38.865 0 0 1 10.995 27.135 38.4 38.4 0 0 1-11.25 27.15L273.133 840.4a38.16 38.16 0 0 1-26.88 11.265z m0 0" p-id="17036"></path></svg>