<svg t="1686058862841" class="icon" viewBox="0 0 1024 1024" version="1.1" xmlns="http://www.w3.org/2000/svg" p-id="1093" width="16" height="16"><path d="M96 521.813333c0-234.368 185.472-425.813333 416-425.813333 230.485333 0 416 191.445333 416 425.813333V640a32 32 0 0 1-64 0v-118.186667c0-200.576-158.336-361.813333-352-361.813333s-352 161.237333-352 361.813333V640a32 32 0 0 1-64 0v-118.186667z" p-id="1094"></path><path d="M810.666667 629.333333c-29.44 0-53.333333 23.893333-53.333334 53.333334v128c0 29.44 23.893333 53.333333 53.333334 53.333333h53.333333v-234.666667H810.666667zM693.333333 682.666667A117.333333 117.333333 0 0 1 810.666667 565.333333h85.333333a32 32 0 0 1 32 32v298.666667a32 32 0 0 1-32 32h-85.333333A117.333333 117.333333 0 0 1 693.333333 810.666667v-128z" p-id="1095"></path><path d="M896 682.666667h42.666667a42.666667 42.666667 0 0 1 42.666666 42.666666v42.666667a42.666667 42.666667 0 0 1-42.666666 42.666667h-42.666667v-128zM128 682.666667H85.333333a42.666667 42.666667 0 0 0-42.666666 42.666666v42.666667a42.666667 42.666667 0 0 0 42.666666 42.666667h42.666667v-128z" p-id="1096"></path><path d="M96 597.333333a32 32 0 0 1 32-32h85.333333A117.333333 117.333333 0 0 1 330.666667 682.666667v128A117.333333 117.333333 0 0 1 213.333333 928H128a32 32 0 0 1-32-32v-298.666667z m64 32v234.666667H213.333333c29.44 0 53.333333-23.893333 53.333334-53.333333v-128c0-29.44-23.893333-53.333333-53.333334-53.333334H160z" p-id="1097"></path></svg>