<svg t="1745825633857" class="icon" viewBox="0 0 1106 1024" version="1.1" xmlns="http://www.w3.org/2000/svg" p-id="4801" width="200" height="200"><path d="M1085.637439 562.147822a61.112041 61.112041 0 0 1-89.041074-2.267506c-28.482083-28.260863-56.68764-54.171262-84.893197-82.957522C801.922713 364.902487 691.865734 251.88669 582.08528 140.72361a37.4968 37.4968 0 0 0-58.070266 0c-135.773811 137.405309-272.100672 274.506441-407.321433 412.547757a67.029678 67.029678 0 0 1-84.340147 18.30596A72.698442 72.698442 0 0 1 0 527.333315v-24.057681a128.169372 128.169372 0 0 1 35.94826-50.493479c132.178985-133.478653 264.91102-266.459561 395.983905-400.961356a166.799924 166.799924 0 0 1 221.220059-17.918825c25.993357 21.403041 48.944938 47.009263 73.002619 71.094596 14.932354 14.766439 42.308336 42.557209 75.76787 76.210311V96.783776a69.131268 69.131268 0 0 1 138.262537 0v193.567551a71.564689 71.564689 0 0 1-4.977451 25.633875c71.896519 72.753747 135.220761 137.128784 142.686938 144.512003A107.595906 107.595906 0 0 1 1106.100294 503.275634v24.030029a160.771678 160.771678 0 0 1-20.462855 34.842159zM428.613864 355.472982c32.629959-32.353434 62.771192-61.388566 96.507251-93.576085a35.173989 35.173989 0 0 1 56.13459 0.248873q186.239637 177.722665 372.755799 355.445329a40.345008 40.345008 0 0 1 13.826254 31.302639c-0.276525 85.722773 0 171.611461-0.276526 257.417191a114.702601 114.702601 0 0 1-119.182306 115.836353C718.688666 1023.972347 663.660177 1023.142772 663.660177 1023.142772V718.965191h-221.220059v304.177581s-55.02849 0.88488-186.3779-1.050795a114.509033 114.509033 0 0 1-117.523156-114.03894c-0.276525-86.856526 0-173.740704-0.276525-260.59723a37.745673 37.745673 0 0 1 12.443628-28.56504c91.253274-86.690611 190.249251-176.201777 277.907699-263.417785z" p-id="4802"></path></svg>