<svg t="1688466640797" class="icon" viewBox="0 0 1024 1024" version="1.1" xmlns="http://www.w3.org/2000/svg" p-id="9807" width="200" height="200"><path d="M993.25 273.26c-17.31-17.42-40.32-27.03-64.89-27.03-24.24 0-47.13 9.38-64.33 26.47-17.2 16.98-26.8 39.76-27.03 64 0 11.62 2.35 23.34 6.81 34.06l-136.93 82.76c-34.51-61.99-69.58-124.75-104.31-186.96l-29.82-53.83c19.21-16.98 30.04-40.99 30.04-66.9 0-50.26-40.88-91.14-91.14-91.14s-91.14 40.88-91.14 91.14c0 26.36 11.84 51.6 31.72 68.69l-11.39 20.44-17.42 31.83c-32.95 59.31-68.24 122.97-104.2 186.74l-22-13.74-12.96-7.71-64.11-39.2-41.55-25.13a89.881 89.881 0 0 0 7.82-36.63v-0.22c-0.89-23.79-10.72-45.9-27.92-62.43C141.43 252.04 118.98 243 95.3 243c-1.12 0-2.23 0-3.35 0.11-47.69 1.68-86.33 40.43-87.9 88.12v0.22c0.34 41.88 29.48 78.07 69.92 87.56l97.39 330.48 0.78 2.68c0.67 2.12 1.23 4.24 1.79 6.37l0.22 0.89c5.03 18.32 11.17 41.1 36.52 41.32h601.76c30.16 0 35.96-24.01 39.76-40.1l0.56-2.12c0.67-2.9 1.45-6.03 2.35-8.93l96.83-326.46c39.2-10.5 66.68-45.46 67.35-86.44 0.11-23.57-9.27-46.68-26.03-63.44z m-90.57 62.55c0.34-14.18 12.06-25.69 26.25-25.69h0.56c14.41 0.34 25.91 12.17 25.69 26.58-0.11 13.18-9.94 24.12-22.67 26.02l-4.13-0.11c-14.53-0.22-26.04-12.28-25.7-26.8zM797.92 726.93v0.45c-0.67 5.14-0.89 10.28-0.67 15.41h-563.9c0.56-3.35 0.67-6.81 0.11-10.16l-0.11-0.45-80.64-273.41c-2.57-8.93-5.25-17.87-7.82-26.58l-3.46-11.73 109.79 66.23 12.73 7.71c11.17 6.81 24.35 14.74 37.41 22.45a47.244 47.244 0 0 0 25.91 7.71c3.91 0 7.82-0.45 11.62-1.45h0.11c12.51-3.46 23.01-12.06 28.81-23.57 39.09-70.25 78.96-141.95 113.25-203.6l25.69-46.13 6.7-12.06 33.51 60.2c36.41 65.22 73.15 131.45 109.34 196.9 6.14 13.4 17.65 23.79 31.72 28.37l0.22 0.11h0.22c3.46 0.89 7.04 1.45 10.61 1.45h0.45c10.95-0.56 21.56-4.13 30.71-10.28l155.58-93.93-34.85 119.28-0.56-0.11-28.81 97.95-23.67 89.24zM537.91 146.72c-0.22 14.18-12.06 25.8-26.25 25.8h-0.45c-14.18-0.22-25.8-12.06-25.8-26.25 0.22-14.52 12.17-26.36 26.69-26.36h0.11c14.31 0.23 25.93 12.29 25.7 26.81zM95.53 357.7c-14.52-0.22-26.25-12.17-26.02-26.8 0.22-14.3 12.06-26.02 26.36-26.02h0.45c14.41 0.22 26.02 12.06 26.02 26.47 0 6.81-2.9 13.51-7.71 18.2l-3.57 3.46c-4.47 3.02-9.6 4.58-15.08 4.58-0.01 0-0.45 0.11-0.45 0.11z m666.98 575.51H260.82c-19.66 0-35.74-16.08-35.74-35.74 0-19.66 16.08-35.74 35.74-35.74h501.69c19.66 0 35.74 16.08 35.74 35.74 0 19.66-16.08 35.74-35.74 35.74z" p-id="9808"></path></svg>