<svg t="1687422542115" class="icon" viewBox="0 0 1024 1024" version="1.1" xmlns="http://www.w3.org/2000/svg" p-id="9185" width="200" height="200"><path d="M704 512a192 192 0 1 1 0 384 192 192 0 0 1 0-384z m64-448a64 64 0 0 1 64 64v321.024h-64V128H256v704h196.352v64H256a64 64 0 0 1-64-64V128a64 64 0 0 1 64-64h512z m-64 512a128 128 0 1 0 0 256 128 128 0 0 0 0-256z m32 32v64h64v64h-128v-128h64z m-255.936-64v64H320v-64h160.064zM704 384v64H320V384h384z m0-160v64H320v-64h384z" p-id="9186"></path></svg>