<svg t="1745825944099" class="icon" viewBox="0 0 1024 1024" version="1.1" xmlns="http://www.w3.org/2000/svg" p-id="7898" width="200" height="200"><path d="M192 192a32 32 0 0 0-32 32v448a32 32 0 0 0 32 32h640a32 32 0 0 0 32-32v-256a32 32 0 0 1 64 0v256A96 96 0 0 1 832 768H544v96h256a32 32 0 0 1 0 64h-576a32 32 0 0 1 0-64h256V768H192a96 96 0 0 1-96-96v-448A96 96 0 0 1 192 128h448a32 32 0 0 1 0 64H192z" p-id="7899"></path><path d="M768 128a32 32 0 0 1 32-32h128a32 32 0 0 1 32 32v128a32 32 0 0 1-64 0v-36.8l-199.04 248.768a32 32 0 0 1-36.864 9.728L519.68 421.568 310.656 630.656a32 32 0 0 1-45.312-45.312l224-224a32 32 0 0 1 34.56-7.04l137.92 55.168L861.44 160h-61.44A32 32 0 0 1 768 128z" p-id="7900"></path></svg>