<svg t="1686059832322" class="icon" viewBox="0 0 1024 1024" version="1.1" xmlns="http://www.w3.org/2000/svg" p-id="1317" width="16" height="16"><path d="M714.666667 693.333333a42.666667 42.666667 0 1 0 0 85.333334h83.2c24.746667 0 44.8-20.053333 44.8-44.8v-40.533334h-128z m-106.666667 42.666667a106.666667 106.666667 0 0 1 106.666667-106.666667h160a32 32 0 0 1 32 32v72.533334a108.8 108.8 0 0 1-108.8 108.8h-83.2a106.666667 106.666667 0 0 1-106.666667-106.666667zM202.666667 778.666667a42.666667 42.666667 0 1 0 0 85.333333H264.533333c24.746667 0 44.8-20.053333 44.8-44.8v-40.533333h-106.666666z m-106.666667 42.666666a106.666667 106.666667 0 0 1 106.666667-106.666666H341.333333a32 32 0 0 1 32 32v72.533333a108.8 108.8 0 0 1-108.8 108.8H202.666667a106.666667 106.666667 0 0 1-106.666667-106.666667zM905.813333 251.306667a32 32 0 0 1-23.765333 38.485333l-533.333333 126.293333a32 32 0 1 1-14.762667-62.293333l533.333333-126.293333a32 32 0 0 1 38.528 23.808z" p-id="1318"></path><path d="M894.464 60.202667A32 32 0 0 1 906.666667 85.333333v633.429334a32 32 0 0 1-64 0V125.909333l-469.333334 112.64V810.666667a32 32 0 0 1-64 0V213.333333a32 32 0 0 1 24.533334-31.146666l533.333333-128a32 32 0 0 1 27.306667 6.016z" p-id="1319"></path></svg>