<svg t="1688466890414" class="icon" viewBox="0 0 1024 1024" version="1.1" xmlns="http://www.w3.org/2000/svg" p-id="12354" width="200" height="200"><path d="M341.333333 597.333333c0-28.2624 22.7328-51.2 51.2-51.2 28.2624 0 51.2 23.176533 51.2 51.2V682.666667h-102.4v-85.333334zM477.866667 289.826133C477.866667 261.7344 500.599467 238.933333 529.066667 238.933333c28.2624 0 51.2 22.6304 51.2 50.8928V682.666667h-102.4V289.826133zM614.4 460.970667a51.165867 51.165867 0 1 1 102.4 0V682.666667h-102.4v-221.696zM204.8 256.136533C204.8 227.805867 227.5328 204.8 256 204.8 284.2624 204.8 307.2 227.396267 307.2 256.136533V819.2H256c-28.2624 0-51.2-22.596267-51.2-51.336533V256.136533zM307.2 716.8h461.038933c28.16 0 50.961067 22.7328 50.961067 51.2 0 28.2624-22.664533 51.2-50.961067 51.2H307.2v-102.4z" fill="#2c2c2c" p-id="12355"></path></svg>