<svg t="1688466698178" class="icon" viewBox="0 0 1024 1024" version="1.1" xmlns="http://www.w3.org/2000/svg" p-id="10809" width="200" height="200"><path d="M805.4784 293.2736H218.4704a10.24 10.24 0 0 0-10.1888 10.2912v47.616a10.0352 10.0352 0 0 0 10.1888 10.1888h587.008a10.2912 10.2912 0 0 0 10.2912-10.1888v-47.616a10.24 10.24 0 0 0-10.2912-10.2912zM805.4784 436.3776H218.4704a10.1888 10.1888 0 0 0-10.1888 10.1888v47.616h-0.1536c0 5.6832 4.608 10.2912 10.2912 10.2912h587.0592c5.5808 0 10.2912-4.608 10.2912-10.2912v-47.5136a10.2912 10.2912 0 0 0-10.2912-10.2912zM805.4784 578.816H218.4704a10.1888 10.1888 0 0 0-10.1888 10.1376v47.6672h-0.1536c0 5.632 4.608 10.24 10.2912 10.24h587.0592c5.5808 0 10.2912-4.608 10.2912-10.24v-47.5648a10.24 10.24 0 0 0-10.2912-10.24zM484.6592 721.92h-266.24a10.24 10.24 0 0 0-10.2912 10.1888v47.6672a10.24 10.24 0 0 0 10.2912 10.1376h266.24a10.24 10.24 0 0 0 10.1888-10.1376v-47.6672a10.1376 10.1376 0 0 0-10.1888-10.1888z" p-id="10810"></path><path d="M844.8 69.4784H716.8V25.6a25.6 25.6 0 0 0-25.6-25.6h-358.4a25.6 25.6 0 0 0-25.6 25.6v43.8784h-128a119.3984 119.3984 0 0 0-119.296 119.296v715.8784a119.3984 119.3984 0 0 0 119.296 119.296h665.6a119.3984 119.3984 0 0 0 119.296-119.296V188.7744a119.3984 119.3984 0 0 0-119.296-119.296z m-469.504-1.3824h273.408v68.096h-273.408v-68.096zM896 512v392.704a51.2 51.2 0 0 1-51.2 51.2h-665.6a51.2 51.2 0 0 1-51.2-51.2V188.8256a51.2 51.2 0 0 1 51.2-51.2H307.2v41.1136a25.6 25.6 0 0 0 25.6 25.6h358.4a25.6 25.6 0 0 0 25.6-25.6v-41.1136h128a51.2 51.2 0 0 1 51.2 51.2V512z" p-id="10811"></path></svg>