<svg t="1688466226126" class="icon" viewBox="0 0 1024 1024" version="1.1" xmlns="http://www.w3.org/2000/svg" p-id="6070" width="200" height="200"><path d="M620.79 195.43H389.25c-0.6 0-1.1-0.49-1.1-1.1V96.35c0-0.6 0.49-1.1 1.1-1.1H620.8c0.6 0 1.1 0.49 1.1 1.1v97.98c-0.01 0.61-0.5 1.1-1.11 1.1z" p-id="6071"></path><path d="M743.12 159.74h-90.99c-1.35 32.91-28.49 59.47-61.73 59.47H419.63c-33.22 0-60.38-26.56-61.73-59.47h-90.98c-50.31 0-91.46 41.15-91.46 91.46v518.3c0 50.3 41.15 91.46 91.46 91.46h476.19c50.31 0 91.46-41.16 91.46-91.46V251.2c0.01-50.31-41.14-91.46-91.45-91.46z m-66.55 512.24h-343.1c-12.64 0-22.86-10.23-22.86-22.86 0-12.64 10.23-22.86 22.86-22.86h343.1c12.64 0 22.86 10.23 22.86 22.86 0.01 12.63-10.22 22.86-22.86 22.86z m0-139.37h-343.1c-12.64 0-22.86-10.23-22.86-22.86 0-12.64 10.23-22.86 22.86-22.86h343.1c12.64 0 22.86 10.23 22.86 22.86 0.01 12.63-10.22 22.86-22.86 22.86z m0-139.38h-343.1c-12.64 0-22.86-10.23-22.86-22.86 0-12.64 10.23-22.86 22.86-22.86h343.1c12.64 0 22.86 10.23 22.86 22.86 0.01 12.64-10.22 22.86-22.86 22.86z" p-id="6072"></path></svg>