<svg t="1687422356522" class="icon" viewBox="0 0 1024 1024" version="1.1" xmlns="http://www.w3.org/2000/svg" p-id="6835" width="200" height="200"><path d="M384 512a192 192 0 1 0 0-384 192 192 0 0 0 0 384z m90.496-282.496Q512 267.008 512 320t-37.504 90.496Q436.992 448 384 448t-90.496-37.504Q256 372.992 256 320t37.504-90.496Q331.008 192 384 192t90.496 37.504zM960 288h-320v64h320v-64z m0 192h-256v64h256v-64zM96 896a32 32 0 0 1-32-32v-202.304c0-13.12 8.128-24.96 20.416-29.568Q234.176 576 384 576q149.76 0 299.584 56.128a31.616 31.616 0 0 1 20.416 29.568V864a32 32 0 0 1-32 32h-576z m32-211.584V832h512v-147.584Q511.68 640 384 640t-256 44.416z m832-12.416h-192v64h192v-64z" fill="#000000" fill-opacity=".9" p-id="6836"></path></svg>