<svg t="1745825828050" class="icon" viewBox="0 0 1024 1024" version="1.1" xmlns="http://www.w3.org/2000/svg" p-id="6887" width="200" height="200"><path d="M962.56 568.32H343.04v56.32a56.32 56.32 0 0 1-56.32 56.32H230.4a56.32 56.32 0 0 1-56.32-56.32v-56.32H61.44a56.32 56.32 0 1 1 0-112.64h112.64v-56.32c0-31.104 25.216-56.32 56.32-56.32h56.32c31.104 0 56.32 25.216 56.32 56.32v56.32h619.52a56.32 56.32 0 1 1 0 112.64z m0-337.92H793.6v56.32a56.32 56.32 0 0 1-56.32 56.32h-56.32a56.32 56.32 0 0 1-56.32-56.32V230.4H61.44a56.32 56.32 0 1 1 0-112.64h563.2V61.44c0-31.104 25.216-56.32 56.32-56.32h56.32c31.104 0 56.32 25.216 56.32 56.32v56.32h168.96a56.32 56.32 0 1 1 0 112.64zM61.44 793.6h563.2v-56.32c0-31.104 25.216-56.32 56.32-56.32h56.32c31.104 0 56.32 25.216 56.32 56.32v56.32h168.96a56.32 56.32 0 1 1 0 112.64H793.6v56.32a56.32 56.32 0 0 1-56.32 56.32h-56.32a56.32 56.32 0 0 1-56.32-56.32v-56.32H61.44a56.32 56.32 0 1 1 0-112.64z" fill="#000000" p-id="6888"></path></svg>