<svg t="1687422709171" class="icon" viewBox="0 0 1024 1024" version="1.1" xmlns="http://www.w3.org/2000/svg" p-id="1072" width="200" height="200"><path d="M393.2 973.8l-18.4-5.6c-31-9.3-60.9-21.8-89.1-37l-16.9-9.1 8.6-168c0.1-2.8-1.1-4.7-2.2-5.8-1.1-1.1-3-2.4-5.8-2.2l-167.9 8.6-9.1-16.9c-15.4-28.6-27.9-58.6-37-89.2l-5.5-18.4 124.8-112.7c2.1-1.9 2.5-4.1 2.5-5.6s-0.4-3.8-2.5-5.7l-125-112.5 5.6-18.4c9.3-31 21.8-60.9 37-89.1l9.1-16.9 168 8.6c2.8 0.1 4.7-1.1 5.8-2.2 1.1-1.1 2.4-3 2.2-5.8L268.8 102l16.9-9.1c28.6-15.4 58.6-27.9 89.2-37l18.4-5.5L506 175.2c1.9 2.1 4.1 2.5 5.6 2.5s3.8-0.4 5.7-2.5l112.5-125 18.4 5.6c31 9.3 60.9 21.8 89.1 37l16.9 9.1-8.6 168c-0.1 2.8 1.1 4.7 2.2 5.8 1.1 1.1 3 2.4 5.8 2.2l167.9-8.6 9.1 16.9c15.4 28.6 27.9 58.6 37 89.2l5.5 18.4-124.7 112.6c-2.1 1.9-2.5 4.1-2.5 5.6s0.4 3.8 2.5 5.7l124.9 112.7-5.6 18.4c-9.3 31-21.8 60.9-37 89.1l-9.1 16.9-168-8.6c-2.8-0.1-4.7 1.1-5.8 2.2s-2.4 3-2.2 5.8l8.6 167.9-16.9 9.1c-28.6 15.4-58.6 27.9-89.2 37l-18.4 5.5-112.6-124.8c-1.9-2.1-4.1-2.5-5.6-2.5s-3.8 0.4-5.7 2.5L393.2 973.8z m118.3-188.2c19.3 0 37.8 8.2 50.7 22.5l86.6 96c14.5-5.1 28.7-11 42.7-17.7l-6.6-129.1c-0.9-19.3 6.3-38.2 20-51.8 13.6-13.6 32.5-20.9 51.8-20l129.2 6.6c6.7-13.8 12.6-28.1 17.7-42.7l-96-86.6c-14.3-12.9-22.5-31.4-22.5-50.7 0-19.3 8.2-37.8 22.5-50.7l96-86.6c-5.1-14.5-11-28.7-17.7-42.7l-129.1 6.6c-19.4 0.9-38.2-6.3-51.8-20-13.6-13.6-20.9-32.5-20-51.8l6.6-129.2c-13.8-6.7-28.1-12.6-42.7-17.7l-86.6 96c-13 14.3-31.5 22.6-50.8 22.6-19.3 0-37.8-8.2-50.7-22.5l-86.6-96c-14.5 5.1-28.7 11-42.7 17.7l6.6 129.1c0.9 19.3-6.3 38.2-20 51.8-13.6 13.6-32.5 20.9-51.8 20L137.1 332c-6.7 13.8-12.6 28.1-17.7 42.7l96 86.6c14.3 13 22.6 31.5 22.6 50.8 0 19.3-8.2 37.8-22.5 50.7l-96 86.6c5.1 14.5 11 28.7 17.7 42.7l129.1-6.6c19.3-1 38.2 6.3 51.8 20 13.6 13.6 20.9 32.5 20 51.8l-6.6 129.2c13.8 6.7 28.1 12.6 42.7 17.7l86.6-96c12.9-14.4 31.4-22.6 50.7-22.6z m0-72.7c-110.8 0-200.9-90.1-200.9-200.9 0-53.7 20.9-104.1 58.8-142.1s88.4-58.8 142.1-58.8c110.8 0 200.9 90.1 200.9 200.9s-90.1 200.9-200.9 200.9z m0-341c-77.3 0-140.1 62.9-140.1 140.1s62.9 140.1 140.1 140.1S651.6 589.3 651.6 512s-62.8-140.1-140.1-140.1z" fill="" p-id="1073"></path></svg>