<svg t="1745826591379" class="icon" viewBox="0 0 1024 1024" version="1.1" xmlns="http://www.w3.org/2000/svg" p-id="15873" width="200" height="200"><path d="M978.493585 161.537699a12.286977 12.286977 0 0 0-2.559995-3.224994 16.381969 16.381969 0 0 0-23.189957 0L731.868045 379.213293l-87.029838-87.029838L865.817795 71.156867a16.32997 16.32997 0 0 0-3.199994-25.647952 328.612387 328.612387 0 0 0-399.055256 50.885905 328.765387 328.765387 0 0 0-85.236841 317.170409L2.741405 789.198528c-3.839993 3.839993-3.583993 10.135981 0.383999 14.103974l217.547594 217.572594c3.966993 3.967993 10.365981 4.223992 14.077974 0.383999l375.4793-375.505299a328.459387 328.459387 0 0 0 317.401408-85.134842 328.714387 328.714387 0 0 0 50.860905-399.081255zM862.360801 495.244076a236.207559 236.207559 0 0 1-275.089486 43.07992l-11.261979 11.261979-0.154-0.128L224.640991 900.87832 123.12418 799.334509l294.95245-295.00345s0 0.128 0.128 0.128l67.677874-67.677874a236.259559 236.259559 0 0 1 227.658575-343.739359L543.168397 263.284509a41.082923 41.082923 0 0 0 0 58.104892l159.595702 159.596702a41.082923 41.082923 0 0 0 58.079892 0l170.219682-170.244683a236.463559 236.463559 0 0 1-68.702872 184.475656z" p-id="15874"></path></svg>