<svg t="1687422652354" class="icon" viewBox="0 0 1024 1024" version="1.1" xmlns="http://www.w3.org/2000/svg" p-id="10160" width="200" height="200"><path d="M950.857143 892.342857c-43.885714-131.657143-153.6-234.057143-277.942857-277.942857 73.142857-51.2 131.657143-146.285714 131.657143-248.685714 0-160.914286-131.657143-292.571429-292.571429-292.571429S219.428571 204.8 219.428571 365.714286c0 102.4 58.514286 197.485714 138.971429 248.685714-131.657143 43.885714-234.057143 146.285714-285.257143 277.942857-7.314286 21.942857 0 43.885714 21.942857 51.2 21.942857 7.314286 43.885714 0 51.2-29.257143 65.828571-146.285714 204.8-256 365.714286-256s299.885714 109.714286 358.4 263.314286c7.314286 14.628571 21.942857 29.257143 36.571429 29.257143h14.628571c21.942857-7.314286 36.571429-36.571429 29.257143-58.514286zM292.571429 365.714286c0-124.342857 95.085714-219.428571 219.428571-219.428572s219.428571 95.085714 219.428571 219.428572-95.085714 219.428571-219.428571 219.428571-219.428571-95.085714-219.428571-219.428571z" fill="" p-id="10161"></path></svg>